<svg xmlns="http://www.w3.org/2000/svg" xmlns:xlink="http://www.w3.org/1999/xlink" width="1920" height="1080" viewBox="0 0 1920 1080">
    <defs>
        <clipPath id="a">
            <rect width="216.133" height="78.277" fill="none"/>
        </clipPath>
        <clipPath id="b">
            <rect width="216.134" height="78.277" fill="none"/>
        </clipPath>
        <clipPath id="d">
            <rect width="1920" height="1080"/>
        </clipPath>
    </defs>
    <g id="c" clip-path="url(#d)">
        <rect width="1920" height="1080" fill="#fff"/>
        <g transform="translate(13 1)">
            <path d="M43.6,447.57c1.7,3.919,3.418-2.861,4.9-16.174.723-6.659,1.46-14.951,1.983-24.347.456-9.394.81-19.894,1.036-30.975l6.042,16.452c-.322,16.746.075,41.826,1.043,69.234.317,13.713.646,28.013.972,42.15s.267,28.121.335,41.184c1.065,20.093,1.761-48.521,2.868,2.947-.773,5.816-2.081,1.6-2.59,12.473.256,23.02,1.506,28.5,2.329,40.775.2,3.07.386,6.566.5,10.865.032,4.3,0,9.4-.135,15.7s-.37,13.769-.737,22.813c-.212,4.522-.331,9.435-.716,14.784s-.812,11.131-1.269,17.4c-1.595,11.107-3.046,22.212-4.759,33.289Q53.991,732.3,52.58,748.535q-.705,8.115-1.408,16.245-.845,8.079-1.7,16.178-3.32,32.382-6.653,64.922c-2.067,21.6-3.84,43.15-4.789,64.615q-.722,16.094-.728,32.105l.11,16.245c.023,5.386.091,10.526.475,15.383.705,9.729,2.93,18.209,7.379,23.556,4.371,5.341,11.485,8.726,20.689,10.314,9.158,1.612,19.64,1.517,30.527.966l16.938-.91q8.508-.272,16.984-.547,33.721-.9,66.909-1.787,16.585-.356,33.008-.706c10.945-.225,21.846-.188,32.674-.257,15.405-1.493,45.4-2.329,78.274-2.724,32.873-.432,68.616-.475,95.532-.929l1.255,1.491c30.956-2.215,83.378,1.89,121.731,2.763l34.308,2.523c6.523,1.469-18.056.845-40.432.674-22.378-.244-42.545-.032-27.192,2.128,73.437,3.969,123.969.57,186.683,6.434,30.484,2.05,43.555,1.841,53.834,1.078,5.118-.382,9.491-.9,14.787-1.616,5.275-.78,11.508-1.692,20.035-3.614,4.136-1.787,1.348-1.357-2.158-1.139-1.752.123-3.657.27-4.917.235-1.278-.069-1.912-.32-1.084-.869a154.717,154.717,0,0,0,21-5.04A113.707,113.707,0,0,0,831.648,999a91.228,91.228,0,0,0,13.5-8.852c2.081-1.489,3.844-3.262,5.724-4.807,1.734-1.7,3.5-3.3,5.077-5.008a118.581,118.581,0,0,0,15.524-20.557,131.067,131.067,0,0,0,10.057-20.745c5.282-13.961,8.309-28.646,9.108-46.652.8-18.042-1.107-39.391-6.185-67.354-.963-1.925-6.315-25.263-9.318-38.017-1.462-6.369-2.569-9.945-2.72-6.486-.162,3.431.6,14.089,3.815,35.2,2.845,13.255,5.674,26.205,7.84,39.173.529,8.927.769,17.779.554,26.505-.317-7.413-1.09-16.448-2.284-25.762s-2.749-18.913-4.294-27.415c-3.164-17.053-5.7-29.846-6.028-26.367-.146-10.554-3.016-29.381-3.724-51.343a202.687,202.687,0,0,1,1.666-34.294,149.911,149.911,0,0,1,8.373-32.721,189.417,189.417,0,0,1,11.349-24.209,147.889,147.889,0,0,1,7.7-12.676c1.481-2,1.62-1.715.13,1.668-1.467,3.39-4.7,9.807-9.17,20.555a150.6,150.6,0,0,0-14.278,34,142.946,142.946,0,0,0-4.442,26.749c-.933,15.945.258,29.23,3.454,46.8-.908-7.687-1.412-15.456-1.716-23.2a211,211,0,0,1,.6-23.288,152.482,152.482,0,0,1,3.717-23.042,134.338,134.338,0,0,1,7.278-22.087c6.021-14.128,13.765-26.881,21.8-38.805,8.042-11.952,16.4-23.165,24.2-34.259a291.178,291.178,0,0,0,20.87-33.3c5.725-11.226,9.973-22.72,11.522-34.316,3.55-23.185-6.094-46.028-16.409-68.573-4.862-8.549-9.9-17.191-14.488-26.447.417-.735-.4-4.245-1.766-10.034a131.593,131.593,0,0,1-3.84-24.021,73.9,73.9,0,0,1,.952-16.355,63.08,63.08,0,0,1,5.914-17.366,69.142,69.142,0,0,1,11.223-15.854A118.357,118.357,0,0,1,957.4,352.569c8.428-7.022,18.545-13.8,25.17-18.937,6.555-5.053,9.831-8.543,7.132-6.981.7-.875-.7.214-3.783,2.478-3.032,2.247-8,5.686-14.2,9.9-6.187,4.237-13.628,9.271-21.059,15.461-7.367,6.214-14.746,13.823-19.656,22.6a66.206,66.206,0,0,0-8.237,25.09,111.22,111.22,0,0,0-.459,15.744c.1,2.8-.288,3.01-1.152-.557-.2-.9-.424-2.042-.671-3.435-.215-1.409-.37-3.1-.563-5.062a65.234,65.234,0,0,1,.828-15.621A67.373,67.373,0,0,1,931.157,369.9,93.591,93.591,0,0,1,948,351.854c12.086-10.118,24.915-17.688,35.31-25.589,10.258-7.851,19.156-17.062,23-26.572a29.538,29.538,0,0,0,1.958-7.043,26.28,26.28,0,0,0,.187-3.483l-.027-1.739-.214-1.75c-.7-4.727-2.87-9.995-5.617-15.709-2.69-5.712-5.946-11.911-8.182-19.084a49.426,49.426,0,0,1-1.816-22.707,52.977,52.977,0,0,1,7.9-20.218,84.991,84.991,0,0,1,12.587-15.2c9.033-8.733,18.456-15.437,27.256-21.525,8.825-6.049,17.128-11.395,24.458-16.552-10.217,8.128-20.489,15.271-30.076,22.819-9.571,7.549-18.723,15.415-26.217,25.265a59.481,59.481,0,0,0-9,16.565,42.848,42.848,0,0,0-2,19.462,46.6,46.6,0,0,0,2.418,9.768,75.535,75.535,0,0,0,4.148,9.085c3.094,5.855,6.731,11.388,9.635,17.347,2.225,5.131,3.737,10.4,3.651,15.789a37.975,37.975,0,0,1-3.858,15.854c-4.828,10.2-13.208,18.909-22.353,26.516-9.252,7.577-19.663,14.216-29.334,21.886-9.615,7.627-18.933,16.435-24.372,27.614a55.28,55.28,0,0,0-5.366,17.5,65.585,65.585,0,0,0,.278,18.183c1.8,12.026,6.106,23.468,10.883,34.558,4.8,11.1,10.148,21.953,14.9,33s8.912,22.344,10.979,34.041a84.261,84.261,0,0,1,1.264,17.673,95.428,95.428,0,0,1-2.368,17.572,124.2,124.2,0,0,1-5.489,16.954,171.116,171.116,0,0,1-7.716,16.172c-11.458,21.072-26.236,40.231-39.247,60.17a263.441,263.441,0,0,0-17.7,30.716,133.522,133.522,0,0,0-11.043,32.89c-4.433,22.6-2.758,45.494.559,67.525-.538,3.39.8,16.878,2.063,27.765,1.227,10.891,2.024,19.194-.1,12.315.792,8.32,3.514,23.7,5.095,38.628,1.668,14.923,1.752,29.381.324,35.445.125,16.982-1.725,34.393-7.317,51.079-5.531,16.658-14.515,32.689-27.258,45.771a99.885,99.885,0,0,1-21.689,16.908,114.035,114.035,0,0,1-26,10.664c-18.319,5.088-37.762,6.358-57.014,6.274-19.282-.114-38.593-1.575-57.708-2.517-19.1-1.024-37.972-1.977-56.483-2.811-37.021-1.694-72.607-3.014-105.73-3.954,18.405,2.688-1.643,2.817-30.906,2.558s-67.761-.655-86.234.08c-34.753-2.26-94.612-1.346-138.592-.64-4.821.776-32.111,1.528-25.467,2.645,32.531-1.078,44.395-.227,77.811-.009-13.632,3.347-71.667.208-121.352,1.629l25.9-2.517c-20.669.568-42.33.83-64.363.983l-33.252.173c-11.125.1-22.261-.048-33.361.369-11.054.361-22.01.715-32.6-.3-10.525-.97-20.858-3.422-28.812-8.895a33.664,33.664,0,0,1-9.847-9.871,45.484,45.484,0,0,1-5.462-12.494c-2.393-8.8-2.854-17.909-3.281-26.665-.527,9.934-.812,19.937,1.6,29.69a40.867,40.867,0,0,0,6.126,13.868,40.487,40.487,0,0,0,11.563,10.705,39.458,39.458,0,0,1-13.391-11.542A45.365,45.365,0,0,1,24.493,988.8c-2.736-11.509-2.288-23.383-2.213-35.031-.034-23.461,1.449-47.205,3.514-70.118,2.044-22.927,4.661-45.073,6.753-65.542,2.076-20.475,3.664-39.278,4.424-55.446-1.889,14.484-3.81,31.4-5.7,48.584-1.864,17.193-3.817,34.638-5.321,50.28-3.16,31.254-4.62,55.154-6.79,54.207-1.111-1.713-.833-19.687.942-41.138,1.682-21.484,4.828-46.3,7.052-62.212q3.672-25.855,6.6-50.366,2.44-24.536,4.362-47.977c1.029-15.672,1.75-31.038,2.517-46.162.452-7.555.484-15.078.707-22.539q.267-11.19.532-22.251c1-59.03.169-115.6,1.725-175.521" transform="translate(-18.504 54.808)" fill="#e2cdf9" stroke="#707070" stroke-width="1"/>
            <path d="M1011.778,60.449c-36.68-2.145-80.391-5.54-125.154-8.125-22.363-1.377-44.994-2.423-67.065-3.3-22.082-.807-43.637-1.213-63.863-1.218,37.371,2.5,38.175,3.292,96.44,7.057-21.958.875-44.395-.475-67.931-2.2-23.524-1.838-48.158-3.993-74.435-5.04,42.851,2.7-13.52,1.937-50.157,1.116-34.642-1.736-79.54-2.981-127.622-3.669-48.091-.415-99.361-.436-146.737.753-10.193.591-26.207.9-44.186,1.645-17.979.7-37.935,1.124-55.992,2.182-18.059.958-34.243,1.751-44.671,2.784s-15.115,1.946-10.223,2.626c-14.392,1.023-25.7,1.63-35.228,2-9.537.321-17.277.736-24.58.873-7.3.176-14.146.34-21.842.527-7.7.247-16.267.5-26.969,1.446-15.82,2.207-31.255,4.07-46.422,5.733q-11.352,1.456-22.522,2.74L27.077,71.216q-8.856.974-17.665,1.939l-.279.031.022.255.046.519L9.3,75l.187,2.072.377,4.155.749,8.353L11.357,98l.438,5.594q.382,5.193.762,10.377c.941,13.827,1.88,27.61,2.825,41.468C19.019,210.875,22.784,267.365,31.3,332c-1.575-3.9-.95,10.249.3,28.5s2.8,40.628,3.663,53.179c.98,13.717,1.927,32.116,3.18,51.541,1.056,19.427,2.169,39.886,3.141,57.739.847,17.851,1.758,33.09,2.69,42.078.828,8.986,1.7,11.719,2.757,4.536.586-9.376.388-21.139-.017-34.4-.237-6.629-.453-13.636-.891-20.9-.46-7.266-.932-14.8-1.418-22.489-1-15.374-2.045-31.373-3.069-47.106-.475-7.872-.882-15.679-1.183-23.319-.385-7.637-.664-15.1-.793-22.3-1.054-49.535,1.289-23.8,4.443,14.53,1.422,19.168,3.077,41.475,4.384,59.1,1.228,17.621,2.448,30.545,3.524,30.912-.73-7.175-.261-12.788-.039-22.093.287-9.305.072-22.3-1.936-44.2,7.544,93.331,2.33-38.938,7.782,8.832-.9-26.814-1.964-46.281-2.581-61.279-.59-15-1.133-25.5-1.339-34.368-.446-17.739.009-28.913.192-56.249-6.813-64.179-8.945-45.907-12.68-64.094-4.449-33.962-6.913-64.455-9.2-93.831-1.122-14.084-2.219-27.9-3.317-41.736l-.518-6.42-.035-.4c.022-.106.253-.054.37-.091l.858-.089,1.705-.187,3.4-.384,8.866-1.1,11.473-1.533c-11.443,2.966-10.672,3.96-1.978,3.649,8.7-.292,25.3-2.078,45.688-3.8,10.18-.981,21.293-2.051,32.8-3.163,11.525-.977,23.452-1.991,35.243-2.989,23.565-2.186,46.664-3.584,64.915-4.843l15.925-1.031,12.726-.753c7.514-.494,13.2-.969,17.669-1.433a147.5,147.5,0,0,0,17.356-2.692A125.478,125.478,0,0,1,313.763,64.8c9.655-.761,24.5-1.6,49.535-2.18,12.484.51,12.384,1.135,6.253,1.811-6.135.622-18.292,1.5-29.946,2.423-23.315,1.79-44.6,3.541-11.737,4.053,15.317-.9,30.628-1.971,45.969-2.585,14.649-1.489,27.829-3.124,41.755-4.688,13.93-1.381,28.607-2.678,46.235-3.644,20.978-.16,52.453.149,53.252,1.043-41.158.784-28.563,3.188,14.627,4.808,20.12-.647,25.129-.811,34.8-1.614-42.254-4.061-20.028-3.79,20.239-2.867,20.126.639,44.761,1.419,68.079,2.157,23.319.776,45.34,1.106,60.259.828,86.982.884,109.621,4.364,131.836,7.787,11.109,1.749,22.117,3.539,41.017,5.408,9.45.925,20.871,1.844,35.267,2.746,14.4.938,31.771,1.91,53.119,2.852-25.974-4.511,2.271-3.545,44-1.3l16.2.892,8.426.477c1.4.089,2.881.143,4.223.263q1.986.184,3.981.373a42.994,42.994,0,0,1,14.642,4.184,26.45,26.45,0,0,1,10.228,9.629,50.557,50.557,0,0,1,5.556,13.364c1.27,4.7,2.254,9.394,3.067,13.922.4,2.271.795,4.482,1.174,6.619q.444,3.17.858,6.115c.679,3.916.808,7.561,1.152,10.8.2,2.759.041,5.41,0,7.957-.065,2.551-.087,5-.381,7.351q-.346,3.525-.671,6.8c-.312,2.174-.708,4.254-1.046,6.275a130.578,130.578,0,0,1-5.649,21.228,148.951,148.951,0,0,1-18.824,35.625c-.636,1.367-1.705,2.869-2.783,4.653-1.139,1.744-2.282,3.783-3.753,5.777l-4.613,6.254c-1.629,2.118-3.467,4.134-5.166,6.2-1.664,2.093-3.541,3.931-5.249,5.719-1.745,1.751-3.228,3.555-4.8,4.91a70.087,70.087,0,0,0-6.081,6.094c6.035-2.537,16.45-8.206,27.993-19.4a122.724,122.724,0,0,0,8.788-9.371c1.448-1.749,3.032-3.508,4.487-5.424q2.123-2.928,4.358-6a157,157,0,0,0,15.923-29.334,162.1,162.1,0,0,0,10.175-37.66c.235-1.726.566-3.462.721-5.225s.292-3.545.44-5.335c.122-1.8.344-3.607.377-5.435s.052-3.669.081-5.524c.144-3.719-.1-7.478-.329-11.3-.181-3.92-.54-7.463-.941-11.276-.856-7.571-1.871-15.632-4.844-24.542-.4-1.118-.88-2.255-1.331-3.387a27.288,27.288,0,0,0-1.575-3.429c-.608-1.149-1.2-2.3-1.86-3.454l-2.337-3.423a29.36,29.36,0,0,0-2.718-3.3,28.365,28.365,0,0,0-3.082-3.12q-1.683-1.456-3.433-2.875c-1.217-.84-2.472-1.635-3.739-2.431a26.9,26.9,0,0,0-3.881-2.1c-1.313-.61-2.653-1.28-3.983-1.8L1064.1,66.8l-2.019-.658-1.967-.465a67.657,67.657,0,0,0-7.852-1.52l-3.883-.529-3.3-.371L1018.9,60.426c-3.872-.087-7.222-.149-7.124.023" transform="translate(-9.133 -44.807)" fill="#e2cdf9" stroke="#707070" stroke-width="1"/>
            <path d="M1013.395,277.68c-28.3,22.7-68.766,45.533-63.17,80.087,2.52,15.547,14.742,28.725,16.387,44.376,2.149,20.455-14.148,38.418-31.18,51.321s-36.7,24.468-46.149,43.013c-22.755,44.673,26.237,92.551,30.458,141.92,5.277,61.678-58.569,108.5-77.532,167.755-12.9,40.32-4.112,83.532,2.792,125.13,5.45,32.83,9.658,66.429,3.55,99.159s-23.911,64.9-54.005,82.351c-34.008,19.725-76.845,17.769-116.743,15.557q-229.864-12.753-460.325-8.124c-38.382.77-76.742,2-115.1,3.4-21.053.768-49.548,4.673-68.434-6.748-22.085-13.354-19.679-40.452-19.794-62.159-.185-35.185,2.734-70.3,6.3-105.306,2.716-26.675,5.914-53.306,8.561-79.987C55.1,606.147,27.546,341.073,0,77.921c299.983-40.46,604.269-29.2,905.653-11.054,40.81,2.457,81.6,5.154,122.411,7.658,34.152,2.093,38.836,22.993,43.332,53.56,8.026,54.574-13,113.491-58,149.594" transform="translate(-8 -50.419)" fill="#e2cdf9" stroke="#707070" stroke-width="1"/>
        </g>
        <path d="M707.2,63.151h0Z" transform="translate(1081.757 43.335)" fill="#595959"/>
        <path d="M707.2,68.026h0Z" transform="translate(1081.757 49.459)" fill="#595959"/>
        <path d="M707.2,72.9h0Z" transform="translate(1081.757 55.585)" fill="#595959"/>
        <rect width="2126.347" height="2136" transform="translate(193.325 -36)" fill="none"/>
        
        <g transform="translate(21 -23)">
            <path d="M465.474,607.627c-15.6-14.1-29.04-29.674-35.683-48.1-6.767-18.774-4.332-39.349-8.3-58.567-.325-1.576-3.393-1.473-3.065.123,4.254,20.614,2.243,42.023,9.52,62.206,6.322,17.537,20.686,32.835,35.464,46.194,1.327,1.2,3.375-.671,2.061-1.86" transform="translate(568.66 469.402)" fill="#e2cdf9"/>
            <path d="M444.337,539.975c-4.855-5.613-38.4-26.987-32.493-9.005,3.2,10.434,20.473,13.179,31.268,10.112" transform="translate(557.036 498.322)" fill="#e2cdf9"/>
            <path d="M421.312,530.484c2.763-6.2,6.949-12.582,13.212-16.48,6.067-3.4,17.452-5.679,15.345,3.183-1.93,7.521-18.938,15.536-28.114,15.626" transform="translate(573.315 482.805)" fill="#e2cdf9"/>
            <path d="M429.536,552.9c-1.327-6.02-1.7-12.34,1.512-18.015,2.664-4.063,8.177-9.036,11.468-2.567,4,7.5-7.805,15.358-12,20.806" transform="translate(584.927 504.679)" fill="#e2cdf9"/>
            <path d="M430.08,527.176c-7.019-5.864-22.468-28.712-6.939-33.108,23.743-6.727,22.343,25.855,6.031,31.763a1.29,1.29,0,1,0,.921,2.393c17.723-6.419,21.891-36.049-1.988-37.119-26.5-1.184-9.371,30.172-.086,37.929,1.387,1.158,3.439-.709,2.06-1.858" transform="translate(561.527 458.878)" fill="#e2cdf9"/>
            <path d="M432.39,534.62c-1.465-1.087-3.525.77-2.061,1.858s3.525-.773,2.061-1.858" transform="translate(586.953 510.791)" fill="#e2cdf9"/>
            <path d="M433.484,531.69c-1.465-1.087-3.525.773-2.06,1.86s3.525-.773,2.06-1.86" transform="translate(588.706 507.272)" fill="#e2cdf9"/>
            <path d="M420.479,529.661c-1.465-1.085-3.525.773-2.06,1.86s3.525-.773,2.06-1.86" transform="translate(567.875 504.836)" fill="#e2cdf9"/>
            <path d="M417.27,527.534c-1.465-1.087-3.525.77-2.061,1.858s3.525-.77,2.061-1.858" transform="translate(562.735 502.279)" fill="#e2cdf9"/>
            <path d="M430.5,514.2c-1.465-1.087-3.528.77-2.061,1.858s3.525-.771,2.061-1.858" transform="translate(583.919 486.263)" fill="#e2cdf9"/>
            <path d="M427.385,516.5c-1.465-1.085-3.525.773-2.061,1.86s3.525-.773,2.061-1.86" transform="translate(578.937 489.03)" fill="#e2cdf9"/>
            <path d="M452.65,643.823c9.436-11.235,23.66-18.567,34.577-28.713C500.15,603.1,506.6,586.026,511.793,571a172.165,172.165,0,0,0,8.648-43.333c.965-12.82-2.506-26.2-.619-38.816.25-1.664,3.348-1.094,3.1.557-1.022,6.822.716,14.18.983,21.059a179,179,0,0,1-.872,23.848,176.247,176.247,0,0,1-9.306,40.619,124.193,124.193,0,0,1-21.4,38.977c-10.087,12.272-27.024,19.395-37.314,31.647-1.158,1.38-3.5-.379-2.362-1.737" transform="translate(623.023 455.012)" fill="#e2cdf9"/>
            <path d="M490.42,527.4A55.961,55.961,0,0,0,501.032,506.1c2.438-10.258-7.194-30.934-22.078-17.7-12.842,11.424,5.877,28.182,14.39,36.967,1.272,1.312-1.415,2.7-2.674,1.4-10.243-10.572-33.528-36.881-5.815-44.685,9.983-2.809,17.164,6.014,19.219,12.558,3.583,11.4-3.562,24.541-10.823,33.94-1.088,1.409-3.923.238-2.831-1.18" transform="translate(654.105 447.438)" fill="#e2cdf9"/>
            <path d="M483.664,563.321c.3-9.346.848-18.266-2.076-27.429-3.01-9.434-10.4-17.97-15.387-26.782-.859-1.512,2.183-2.269,3.031-.77,5.1,9,11.414,17.385,15.389,26.78,3.778,8.926,2.511,18.86,2.217,28.1-.055,1.664-3.229,1.785-3.174.105" transform="translate(644.972 478.641)" fill="#e2cdf9"/>
            <path d="M491.715,541.24c.762-8.226.926-16.21-2.308-24.147-2.516-6.179-16.784-16.5-24.857-10.57-6.255,4.592,4.137,15.5,7.524,19.155,5.331,5.758,13.623,8.547,19.823,13.546,1.457,1.173-.664,3.108-2.12,1.933-5.336-4.3-12.314-6.815-17.471-11.255a52.069,52.069,0,0,1-9.408-11.072c-3.689-5.624-5.279-12.543,2.682-16.049,7.358-3.238,17.138,3.271,21.88,7.138,9.512,7.757,8.349,21.239,7.425,31.215-.151,1.649-3.328,1.779-3.171.106" transform="translate(635.059 471.891)" fill="#e2cdf9"/>
            <path d="M472.574,560.995c4.634-10.927,11.916-20.262,21.217-28.922A115.41,115.41,0,0,1,510.27,519.2c6.6-4.217,15.582-5.481,22.986-8.367,1.824-.711,3.559,1.466,1.714,2.186-3.968,1.547-7.886,2.782-12.054,3.956-9.965,2.8-16.989,8.27-24.032,14.455-10.118,8.893-18.313,18.572-23.21,30.119-.663,1.563-3.772,1.028-3.1-.555" transform="translate(655.271 482.446)" fill="#e2cdf9"/>
            <path d="M482.253,533.878c4.34-11.039,14.19-20.073,27.219-24.823,7.844-2.864,20.174-5.217,27.617-.581,7.7,4.8-1.636,13.81-6.267,16.973-12.858,8.774-29.186,10.852-45.392,10.566-2.037-.037-2.185-2.635-.133-2.6,15.137.269,49.664-2.985,51.074-20.088.726-8.836-21.8-3.11-25.957-1.792-11.9,3.771-21.253,13.216-25.057,22.9-.622,1.58-3.731,1.041-3.1-.555" transform="translate(670.792 476.629)" fill="#e2cdf9"/>
            <path d="M543.857,536.81c-13.557.09-26.41,2.523-39.132,6.212-12.782,3.711-23.468,10.5-35.81,14.9a1.335,1.335,0,1,1-.942-2.481c13.711-4.893,25.411-11.887,39.624-16.011a133.074,133.074,0,0,1,36.13-5.221c2.04-.013,2.185,2.582.13,2.6" transform="translate(646.43 510.699)" fill="#e2cdf9"/>
            <path d="M476.677,549.76c9.548-10.841,23.9-19.529,40.829-19.655,8.508-.062,22.021,1.29,26.327,8.32,4.691,7.66-11.208,15.265-17.517,17.539-14.838,5.353-32.779-.42-47.094-4.044a1.326,1.326,0,1,1,.677-2.538c9.783,2.476,19.484,5.149,29.743,5.886a46.061,46.061,0,0,0,15.73-1.783c5.672-1.583,18.977-8.45,15.114-14.759-3.468-5.664-18.332-6.058-24.766-6.012-15.132.115-28.338,9.313-36.679,18.781-1.2,1.36-3.546-.4-2.362-1.737" transform="translate(661.474 505.762)" fill="#e2cdf9"/>
            <path d="M464.107,578.722c6.325-17.258,1.254-32.384-6.616-48.583-.757-1.554,2.279-2.32,3.031-.773,8.12,16.712,13.175,32.208,6.689,49.91-.585,1.6-3.694,1.052-3.1-.555" transform="translate(631.071 503.861)" fill="#e2cdf9"/>
            <path d="M475.626,564.1c8.107-10.922,11.856-39.03-11.281-39.545-14.153-.315-7.6,17.546-4.636,22.692a35.086,35.086,0,0,0,16.383,14.871c1.829.76.38,3.073-1.441,2.311-10.129-4.224-16.745-12.848-20.463-21.369-2.594-5.946-3.473-17.577,5.9-20.289,8.6-2.492,19.6,2.333,22.518,9.443a34.728,34.728,0,0,1-4.15,33.064c-1.059,1.426-3.892.251-2.831-1.18" transform="translate(623.176 496.161)" fill="#e2cdf9"/>
            <path d="M615.078,616.732c-27.349.942-55.052-10.412-69.921-29.426-8.583-10.973-11.869-22.4-12.421-35.329-.7-16.447,5.414-37.841-5.487-52.767-.9-1.233,1.517-2.243,2.409-1.021,6.673,9.139,6.353,22.012,6.247,32.327-.159,15.246-2.084,30.469,4.693,45.041,11.325,24.35,43.392,40.033,74.615,38.961,1.748-.062,1.6,2.157-.135,2.214" transform="translate(742.681 466.762)" fill="#e2cdf9"/>
            <path d="M520.374,507.165c6.681,7.986,15.014,16.038,27.427,17.4,1.72.191,1.6,2.408-.135,2.217-13.5-1.488-22.4-9.872-29.7-18.6-.989-1.18,1.434-2.186,2.409-1.024" transform="translate(727.752 477.59)" fill="#e2cdf9"/>
            <path d="M557.753,514.721c-3.853,10.134-15.056,20.308-26.387,25.331-1.54.682-2.784-1.288-1.251-1.968,10.75-4.766,21.41-14.458,25.062-24.057.518-1.367,3.1-.674,2.576.693" transform="translate(746.466 485.561)" fill="#e2cdf9"/>
            <path d="M518.992,527.251c11.507,7.411,24.867,12.4,38.633,16.32,1.647.471.807,2.58-.851,2.107-13.971-3.978-27.586-9.047-39.265-16.568-1.363-.88.1-2.745,1.483-1.858" transform="translate(726.526 502.056)" fill="#e2cdf9"/>
            <path d="M530.579,495.61c7.787.321,7.183,10.2-.606,9.877s-7.183-10.2.606-9.877" transform="translate(738.474 464.32)" fill="#e2cdf9"/>
            <path d="M543.715,511.54c7.79.319,7.186,10.2-.6,9.877s-7.183-10.2.6-9.877" transform="translate(759.517 483.455)" fill="#e2cdf9"/>
            <path d="M522.431,504.663c7.789.319,7.186,10.2-.6,9.877s-7.186-10.2.6-9.877" transform="translate(725.424 475.194)" fill="#e2cdf9"/>
            <path d="M520.887,525.508c7.79.319,7.186,10.2-.6,9.877s-7.183-10.2.6-9.877" transform="translate(722.954 500.233)" fill="#e2cdf9"/>
            <path d="M617.457,605.1c-15.6-14.1-29.04-29.674-35.682-48.1-6.767-18.774-4.332-39.351-8.3-58.568-.325-1.576-3.393-1.473-3.065.123,4.254,20.614,2.243,42.021,9.522,62.206,6.32,17.537,20.684,32.835,35.461,46.192,1.327,1.2,3.374-.669,2.06-1.858" transform="translate(812.094 466.366)" fill="#e2cdf9"/>
            <path d="M596.32,537.447c-4.852-5.615-38.4-26.987-32.493-9.005,3.2,10.434,20.475,13.179,31.267,10.112" transform="translate(800.47 495.285)" fill="#e2cdf9"/>
            <path d="M573.295,527.954c2.763-6.2,6.949-12.58,13.211-16.478,6.067-3.4,17.453-5.679,15.345,3.183-1.928,7.522-18.938,15.536-28.114,15.626" transform="translate(816.749 479.768)" fill="#e2cdf9"/>
            <path d="M581.519,550.373c-1.327-6.02-1.7-12.342,1.514-18.015,2.662-4.066,8.177-9.036,11.466-2.566,4,7.5-7.8,15.358-12,20.806" transform="translate(828.361 501.642)" fill="#e2cdf9"/>
            <path d="M582.064,524.647c-7.022-5.864-22.468-28.712-6.941-33.11,23.746-6.725,22.344,25.855,6.033,31.763a1.291,1.291,0,1,0,.921,2.395c17.723-6.421,21.888-36.049-1.99-37.119-26.5-1.184-9.372,30.172-.083,37.929,1.384,1.156,3.437-.709,2.06-1.858" transform="translate(804.959 455.84)" fill="#e2cdf9"/>
            <path d="M584.373,532.089c-1.465-1.085-3.525.773-2.06,1.86s3.525-.773,2.06-1.86" transform="translate(830.387 507.753)" fill="#e2cdf9"/>
            <path d="M585.469,529.162c-1.465-1.087-3.528.77-2.061,1.858s3.525-.77,2.061-1.858" transform="translate(832.141 504.235)" fill="#e2cdf9"/>
            <path d="M572.462,527.133c-1.465-1.087-3.525.773-2.061,1.86s3.526-.773,2.061-1.86" transform="translate(811.309 501.798)" fill="#e2cdf9"/>
            <path d="M569.253,525c-1.465-1.087-3.525.771-2.061,1.858s3.525-.773,2.061-1.858" transform="translate(806.169 499.242)" fill="#e2cdf9"/>
            <path d="M582.479,511.671c-1.465-1.087-3.525.77-2.06,1.858s3.525-.773,2.06-1.858" transform="translate(827.354 483.225)" fill="#e2cdf9"/>
            <path d="M579.37,513.975c-1.467-1.087-3.528.773-2.063,1.86s3.528-.773,2.063-1.86" transform="translate(822.371 485.993)" fill="#e2cdf9"/>
            <path d="M608.213,647.078c8.167-11.882,21.529-20.225,31.291-31.132,11.554-12.906,16.115-30.385,19.632-45.73A169.511,169.511,0,0,0,663,526.423c-.442-12.84-5.365-25.913-4.87-38.616.065-1.675,3.216-1.336,3.151.326-.271,6.872,2.269,14.074,3.289,20.9a179.532,179.532,0,0,1,1.746,23.813,173.051,173.051,0,0,1-4.821,41.141,119.092,119.092,0,0,1-17.044,40.39c-8.7,12.961-24.792,21.294-33.695,34.251-1,1.462-3.533-.119-2.545-1.554" transform="translate(872.317 453.634)" fill="#e2cdf9"/>
            <path d="M642.859,526.035a53.787,53.787,0,0,0,8.234-22c1.306-10.4-10.553-30.282-23.928-16.007-11.539,12.318,8.942,27.638,18.384,35.763,1.41,1.215-1.113,2.8-2.511,1.594-11.359-9.778-37.436-34.275-10.688-44.077,9.637-3.533,17.752,4.728,20.517,11.1,4.818,11.09-.859,24.7-7.061,34.6-.929,1.481-3.879.522-2.948-.969" transform="translate(892.657 446.133)" fill="#e2cdf9"/>
            <path d="M640.449,561.756c-.723-9.333-1.155-18.257-5.073-27.169-4.033-9.174-12.324-17.134-18.261-25.543-1.02-1.446,1.925-2.423,2.937-.99,6.062,8.585,13.274,16.478,18.262,25.545,4.738,8.611,4.569,18.6,5.284,27.819.13,1.662-3.018,2.016-3.148.339" transform="translate(886.596 478.432)" fill="#e2cdf9"/>
            <path d="M645.669,539.61c-.143-8.25-.853-16.212-4.943-23.881-3.187-5.97-18.524-15.206-25.916-8.708-5.729,5.034,5.818,15.131,9.592,18.525,5.942,5.347,14.5,7.517,21.228,12.043,1.579,1.061-.32,3.143-1.9,2.078-5.784-3.889-13.011-5.882-18.634-9.927A54.993,54.993,0,0,1,614.51,519.4c-4.29-5.334-6.629-12.1.913-16.179,6.975-3.766,17.426,2,22.575,5.505,10.326,7.026,10.644,20.542,10.818,30.546.028,1.653-3.12,2.014-3.148.337" transform="translate(876.363 471.995)" fill="#e2cdf9"/>
            <path d="M625.745,562.56c3.416-11.222,9.647-21.05,17.962-30.359a109.185,109.185,0,0,1,15-14.028c6.109-4.686,14.918-6.6,21.977-10.02,1.738-.841,3.7,1.2,1.946,2.054a124.115,124.115,0,0,1-11.572,4.821c-9.613,3.524-16.011,9.483-22.349,16.161-9.106,9.6-16.206,19.837-19.817,31.7-.489,1.607-3.645,1.3-3.151-.326" transform="translate(900.676 479.156)" fill="#e2cdf9"/>
            <path d="M634,534.056c3.114-11.314,11.934-21.032,24.391-26.718,7.5-3.425,19.518-6.674,27.44-2.6,8.2,4.213-.117,13.874-4.381,17.363-11.846,9.683-27.883,12.947-44.052,13.848-2.032.115-2.464-2.461-.416-2.575,15.106-.839,49.139-6.612,48.668-23.751-.247-8.851-22.052-1.5-26.048.119-11.442,4.629-19.719,14.724-22.45,24.642-.445,1.62-3.6,1.31-3.151-.326" transform="translate(913.91 473.013)" fill="#e2cdf9"/>
            <path d="M695.6,533.934c-13.5,1.083-26.028,4.449-38.295,9.056-12.324,4.631-22.221,12.177-34.033,17.469a1.35,1.35,0,1,1-1.212-2.4c13.12-5.877,24.009-13.7,37.712-18.849a130.475,130.475,0,0,1,35.412-7.852c2.032-.161,2.459,2.412.416,2.578" transform="translate(893.456 507.258)" fill="#e2cdf9"/>
            <path d="M630.315,550.333c8.323-11.5,21.664-21.2,38.513-22.567,8.466-.685,22.073-.33,27.128,6.357,5.513,7.284-9.488,16.023-15.524,18.752-14.187,6.417-32.691,1.983-47.346-.574-1.99-.35-1.608-2.93.4-2.58,10.014,1.75,19.971,3.7,30.271,3.683a45.259,45.259,0,0,0,15.47-2.93c5.477-1.992,17.973-9.809,13.435-15.807-4.074-5.384-18.922-4.689-25.325-4.174-15.059,1.224-27.206,11.356-34.473,21.394-1.043,1.444-3.575-.132-2.545-1.554" transform="translate(907.691 502.661)" fill="#e2cdf9"/>
            <path d="M622.3,578.644c4.41-17.651-2.3-32.344-11.913-47.9-.926-1.492,2.016-2.478,2.935-.99,9.92,16.049,16.654,31.112,12.129,49.219-.406,1.631-3.559,1.319-3.151-.326" transform="translate(875.874 504.452)" fill="#e2cdf9"/>
            <path d="M631.588,563.764c6.879-11.471,7.529-39.743-15.569-38.558-14.13.724-5.646,18.032-2.131,22.941a36.947,36.947,0,0,0,17.947,13.61c1.9.625.716,3.033-1.184,2.41C620.1,560.7,612.567,552.6,607.93,544.38c-3.234-5.73-5.385-17.251,3.656-20.641,8.294-3.11,19.776.891,23.46,7.757,5.419,10.1,5.456,23.286-.51,33.236-.9,1.5-3.848.537-2.948-.969" transform="translate(867.752 496.833)" fill="#e2cdf9"/>
            <path d="M767.06,616.668c-27.349.942-55.052-10.412-69.921-29.426-8.581-10.973-11.869-22.4-12.421-35.332-.7-16.445,5.414-37.839-5.484-52.765-.9-1.233,1.514-2.243,2.407-1.021,6.673,9.139,6.353,22.012,6.249,32.327-.161,15.246-2.087,30.469,4.691,45.043,11.325,24.348,43.391,40.031,74.615,38.959,1.748-.062,1.6,2.157-.135,2.214" transform="translate(986.116 466.685)" fill="#e2cdf9"/>
            <path d="M672.356,507.1c6.681,7.986,15.015,16.038,27.427,17.4,1.72.191,1.6,2.408-.135,2.216-13.495-1.488-22.4-9.872-29.7-18.6-.989-1.18,1.433-2.186,2.409-1.023" transform="translate(971.186 477.512)" fill="#e2cdf9"/>
            <path d="M709.735,514.656c-3.851,10.134-15.056,20.31-26.387,25.332-1.54.682-2.784-1.288-1.249-1.968,10.748-4.766,21.407-14.457,25.06-24.057.518-1.367,3.1-.674,2.576.693" transform="translate(989.9 485.483)" fill="#e2cdf9"/>
            <path d="M670.977,527.187c11.5,7.411,24.865,12.4,38.633,16.32,1.647.471.807,2.58-.853,2.107-13.969-3.978-27.586-9.047-39.263-16.569-1.366-.88.1-2.745,1.483-1.858" transform="translate(969.961 501.979)" fill="#e2cdf9"/>
            <path d="M682.56,495.545c7.79.321,7.186,10.2-.6,9.877s-7.183-10.2.6-9.877" transform="translate(981.908 464.242)" fill="#e2cdf9"/>
            <path d="M695.7,511.476c7.79.319,7.186,10.2-.6,9.877s-7.183-10.2.6-9.877" transform="translate(1002.952 483.378)" fill="#e2cdf9"/>
            <path d="M674.414,504.6c7.79.319,7.186,10.2-.6,9.877s-7.186-10.2.6-9.877" transform="translate(968.858 475.117)" fill="#e2cdf9"/>
            <path d="M672.87,525.444c7.79.319,7.186,10.2-.6,9.877s-7.183-10.2.6-9.877" transform="translate(966.388 500.156)" fill="#e2cdf9"/>
            <path d="M756.921,606.12c-15.6-14.1-29.04-29.674-35.683-48.1-6.767-18.776-4.329-39.351-8.3-58.567-.325-1.578-3.393-1.473-3.062.121,4.251,20.616,2.24,42.023,9.52,62.208,6.322,17.537,20.684,32.833,35.461,46.192,1.327,1.2,3.374-.672,2.061-1.858" transform="translate(1035.479 467.59)" fill="#e2cdf9"/>
            <path d="M735.785,538.467c-4.855-5.615-38.4-26.987-32.493-9.005,3.2,10.434,20.473,13.179,31.265,10.11" transform="translate(1023.854 496.51)" fill="#e2cdf9"/>
            <path d="M712.76,528.975c2.763-6.2,6.949-12.582,13.212-16.478,6.067-3.4,17.452-5.681,15.345,3.181-1.928,7.524-18.938,15.536-28.114,15.629" transform="translate(1040.133 480.993)" fill="#e2cdf9"/>
            <path d="M720.983,551.391c-1.327-6.018-1.7-12.34,1.514-18.012,2.661-4.066,8.177-9.036,11.466-2.569,4,7.5-7.8,15.36-12,20.806" transform="translate(1051.743 502.867)" fill="#e2cdf9"/>
            <path d="M721.529,525.666c-7.022-5.864-22.468-28.713-6.941-33.108,23.746-6.725,22.344,25.855,6.033,31.763a1.29,1.29,0,1,0,.921,2.393c17.723-6.419,21.888-36.049-1.99-37.117-26.5-1.186-9.371,30.172-.083,37.929,1.384,1.156,3.437-.711,2.061-1.86" transform="translate(1028.344 457.066)" fill="#e2cdf9"/>
            <path d="M723.838,533.111c-1.465-1.087-3.525.773-2.061,1.858s3.525-.77,2.061-1.858" transform="translate(1053.771 508.979)" fill="#e2cdf9"/>
            <path d="M724.933,530.18c-1.465-1.085-3.528.772-2.061,1.86s3.525-.773,2.061-1.86" transform="translate(1055.523 505.46)" fill="#e2cdf9"/>
            <path d="M711.926,528.154c-1.465-1.087-3.525.773-2.06,1.858s3.525-.77,2.06-1.858" transform="translate(1034.691 503.024)" fill="#e2cdf9"/>
            <path d="M708.717,526.025c-1.465-1.087-3.525.773-2.061,1.86s3.526-.773,2.061-1.86" transform="translate(1029.552 500.467)" fill="#e2cdf9"/>
            <path d="M721.943,512.691c-1.465-1.087-3.525.773-2.06,1.86s3.525-.773,2.06-1.86" transform="translate(1050.736 484.45)" fill="#e2cdf9"/>
            <path d="M718.834,515c-1.465-1.087-3.528.771-2.061,1.858s3.525-.77,2.061-1.858" transform="translate(1045.754 487.219)" fill="#e2cdf9"/>
            <path d="M732.858,638.46c11.554-9.824,27.05-15.153,39.851-23.7,15.15-10.117,24.932-26.1,33.052-40.229a181.85,181.85,0,0,0,17.2-41.592c3.515-12.52,2.766-26.185,7.147-38.38.58-1.607,3.525-.63,2.953.964-2.373,6.6-2.128,14.088-3.242,20.909a183.581,183.581,0,0,1-5.628,23.408,186.934,186.934,0,0,1-17.3,38.829,135.984,135.984,0,0,1-28.908,35.591c-12.405,10.757-30.539,15.521-43.139,26.23-1.418,1.208-3.382-.841-1.983-2.027" transform="translate(1071.554 462.076)" fill="#e2cdf9"/>
            <path d="M775.8,532.974a61.015,61.015,0,0,0,14.728-19.6c4.459-9.8-.911-31.479-18.243-20.41-14.952,9.551.164,28.589,6.806,38.4.991,1.464-1.936,2.474-2.917,1.023-7.992-11.8-25.7-40.87,3.195-44.858,10.412-1.44,15.73,8.224,16.451,14.955,1.257,11.726-8.422,23.736-17.465,32.038-1.353,1.244-3.916-.293-2.555-1.543" transform="translate(1121.323 454.442)" fill="#e2cdf9"/>
            <path d="M760.989,568.429c2.165-9.181,4.488-17.907,3.437-27.337-1.085-9.71-6.666-19.12-9.829-28.477-.544-1.611,2.609-1.95,3.146-.359,3.231,9.558,7.787,18.679,9.829,28.479,1.941,9.311-1.293,18.941-3.432,28.015-.385,1.633-3.538,1.33-3.151-.321" transform="translate(1107.043 483.08)" fill="#e2cdf9"/>
            <path d="M774.2,547c2.4-8.015,4.155-15.868,2.552-24.13-1.249-6.434-13.258-18.525-22.409-13.753-7.092,3.7.981,15.84,3.593,19.9,4.108,6.4,11.729,10.255,16.846,16.016,1.2,1.356-1.277,2.978-2.479,1.625-4.4-4.955-10.784-8.369-14.983-13.441a47.452,47.452,0,0,1-7.069-12.179c-2.516-6.044-2.7-13.08,5.854-15.474,7.909-2.212,16.253,5.516,20.158,9.967,7.836,8.924,3.994,22.069,1.088,31.79-.479,1.6-3.637,1.307-3.151-.321" transform="translate(1097.759 475.817)" fill="#e2cdf9"/>
            <path d="M756.721,560.433c6.757-10.161,15.805-18.393,26.714-25.695a126.128,126.128,0,0,1,18.831-10.5c7.352-3.282,16.466-3.322,24.349-5.182,1.941-.456,3.221,1.922,1.254,2.386-4.223,1-8.336,1.69-12.681,2.289-10.391,1.435-18.412,5.888-26.6,11.05-11.765,7.418-21.782,15.871-28.921,26.608-.968,1.455-3.929.508-2.95-.962" transform="translate(1110.233 492.429)" fill="#e2cdf9"/>
            <path d="M741.31,580.793c9.692-16.179,7.712-31.779,3.185-48.814-.434-1.635,2.714-1.981,3.145-.354,4.673,17.572,6.559,33.535-3.379,50.132-.9,1.495-3.853.546-2.951-.964" transform="translate(1085.591 506.316)" fill="#e2cdf9"/>
            <path d="M755,567.079c10.18-9.69,19.5-36.921-3.224-40.522-13.9-2.2-11.005,16.293-9.111,21.766a31.9,31.9,0,0,0,13.191,16.863c1.652.995-.239,3.082-1.886,2.089-9.145-5.523-13.951-14.918-15.912-23.817-1.371-6.214.086-17.805,9.879-19.23,8.981-1.307,18.868,4.926,20.325,12.327,2.141,10.887-1.876,23.661-10.706,32.067-1.329,1.263-3.89-.273-2.555-1.543" transform="translate(1079.944 498.495)" fill="#e2cdf9"/>
            <path d="M68.271,411.091c1.038,10.335,1.626,20.689,3.091,31,.885,6.2,2.159,12.884,8.926,17.053,10.8,6.652,6.746-17.83,6.827-17.354-3.073-18.541-11.773-35.5-17.275-53.449-.557-1.834,2.932-2.483,3.494-.654,4.454,14.55,10.86,28.528,14.879,43.262,2.063,7.572,8.646,26.1.086,32.521-5.586,4.193-15.28-5.466-17.286-8.862-7.2-12.179-5.006-30.524-6.325-43.6-.19-1.882,3.39-1.768,3.583.092" transform="translate(2.093 333.376)" fill="#ae97c0"/>
            <path d="M70.091,388.621c9.067,18.07,16.058,43.016,36.349,55.107a32.867,32.867,0,0,0,6.84,2.837q11.142-5.488,3.7-13.553c-2.875-5.807-7.823-10.931-12.543-15.776-9.715-9.971-21.7-18.889-32.852-27.773-1.655-1.318.989-3.293,2.638-1.979,15.761,12.553,32.636,25.1,43.839,40.744,2.321,3.242,12.244,20.286,1.517,21.6-9.972,1.215-18.376-5.177-24.235-10.953C81.25,424.98,75.151,406.385,66.917,389.979c-.869-1.73,2.295-3.108,3.174-1.358" transform="translate(5.434 333.929)" fill="#ae97c0"/>
            <path d="M71.534,388.418c16.591,11.787,32.17,32.536,56.27,33.185,15.99.431,11.109-10.909,1.764-16.632-6.541-4.008-14.424-6.6-21.935-9.076-11.325-3.738-23.572-4.933-35.524-6.593-2.274-.315-1.218-3.112,1.028-2.8,20.975,2.908,40.181,6.491,58.333,15.987,7.391,3.865,18.183,11.314,10.469,18.44-6.281,5.789-21.355,3.947-28.541.955-17.876-7.431-29.636-20.927-44.5-31.49-1.741-1.23.913-3.2,2.638-1.977" transform="translate(7.933 333.24)" fill="#ae97c0"/>
            <path d="M72.251,391.231c25.848,3.808,50.71,13.042,76.42,3.757q5.292-8.043-2.251-8.4-4.4-.621-8.82-1.171c-7.953-1.024-16.133,0-23.967,1.162-14.12,2.093-27.75,5.895-41.872,7.973-2.266.33-3.075-2.518-.8-2.855,20.9-3.075,41.058-9.8,62.556-9.5,8.276.114,23.881.733,23.85,9.681-.026,6.954-21.691,10.15-27.149,10.361-20.275.779-39.3-5.3-58.994-8.206-2.274-.335-1.212-3.132,1.028-2.8" transform="translate(9.982 328.085)" fill="#ae97c0"/>
            <path d="M73.032,402.514c13.8-1.283,27.087-4.072,40.355-7.359a105.873,105.873,0,0,0,13.474-4.345c8.385-3.3,17.073-17.189,1.772-14.187-21.547,4.231-40.743,17.821-57.225,28.794-1.78,1.184-4.212-.962-2.417-2.157,14.38-9.577,27.768-17.484,44.362-24.541,5.521-2.349,19.976-9.155,26.129-4.462,8.011,6.108-1.759,14.325-8.078,17.819-15.631,8.642-39.419,11.6-57.571,13.3-2.271.209-3.093-2.641-.8-2.857" transform="translate(7.988 316.621)" fill="#ae97c0"/>
            <path d="M46.35,367.6c16.4,15.747,42.156,21.867,57.368,38.653,1.361,1.5-1.262,3.5-2.638,1.977-15.173-16.738-40.974-22.91-57.368-38.653-1.491-1.431,1.14-3.418,2.638-1.977" transform="translate(-32.204 309.962)" fill="#ae97c0"/>
            <path d="M67.717,393.649A69.694,69.694,0,0,0,64.5,411.492c.14,4.18-1.829,15.481,2.3,18.281,7.352,5.138,3.8-24.05,3.46-27.982,6.718,6.518,4.441,20.4,15.1,24.5,6.585-5.862-7.324-21.543-8.632-28.026,5.219,3.018,22.926,17.566,30.185,11.369-5.513-5.908-16.063-9.606-23.834-12.562,3.681,1.2,28.015,2.734,29.493-3.009,1.4-5.1-22.8-2.452-26.928-2.52,4.7-3.4,11.651-4.284,16.237-8.087,6.889-5.71-1.717-4.3-6.98-2.9-9.054,2.538-16.24,8.092-24.995,10.784" transform="translate(1.237 324.628)" fill="#ae97c0"/>
            <path d="M49.327,412.842c11.3,18.534,25.294,35.862,45.507,48.675,20.606,13.062,47.094,19.2,69.357,30.108a1.425,1.425,0,1,1-1.363,2.494c-23.886-11.7-51.238-18.523-73.389-32.567-19.242-12.2-32.524-30.181-43.233-47.737-.96-1.576,2.17-2.534,3.122-.973" transform="translate(-27.79 363.952)" fill="#ae97c0"/>
            <path d="M66.459,431.734c5.04,6.254,18.246,42.563-1.715,30.529-11.674-6.793-8.229-22.212-.143-29.947" transform="translate(-9.871 387.601)" fill="#ae97c0"/>
            <path d="M73.332,448.9c8.786.167,18.363-.777,25.679-4.427,6.621-3.687,13.966-12.225,2.139-13.991C91.055,429.095,74.37,440.03,70.618,447.6" transform="translate(11.602 385.95)" fill="#ae97c0"/>
            <path d="M53.569,426.2c6.941,3.489,14.635,6.3,22.942,5.888,6.1-.6,14.453-3.2,7.732-8.5-7.714-6.289-22.143.385-30.562,1.706" transform="translate(-15.706 374.629)" fill="#ae97c0"/>
            <path d="M86.205,448.152c4.488,8.151,26.707,30.029,38.316,18.889,17.754-17.035-23.21-28.792-37.009-17.6-1.514,1.23-4.129-.475-2.6-1.713,14.994-12.159,53.4-3.867,45.252,16.368-9.038,22.454-41.141-4.189-47.081-14.97-.882-1.607,2.243-2.573,3.125-.973" transform="translate(31.315 400.001)" fill="#ae97c0"/>
            <path d="M62.111,424.143c.767,1.647-2.355,2.62-3.122.973s2.355-2.619,3.122-.973" transform="translate(-7.217 377.461)" fill="#ae97c0"/>
            <path d="M65.62,424.232c.765,1.649-2.357,2.619-3.122.973s2.352-2.62,3.122-.973" transform="translate(-1.599 377.568)" fill="#ae97c0"/>
            <path d="M62.59,437.789c.767,1.649-2.355,2.622-3.122.973s2.355-2.619,3.122-.973" transform="translate(-6.45 393.852)" fill="#ae97c0"/>
            <path d="M63.551,441.781c.768,1.646-2.355,2.619-3.122.973s2.355-2.62,3.122-.973" transform="translate(-4.911 398.647)" fill="#ae97c0"/>
            <path d="M82.788,434.1c.767,1.647-2.355,2.62-3.122.973s2.355-2.619,3.122-.973" transform="translate(25.901 389.419)" fill="#ae97c0"/>
            <path d="M79.137,436.235c.768,1.647-2.355,2.619-3.122.973s2.355-2.619,3.122-.973" transform="translate(20.054 391.985)" fill="#ae97c0"/>
            <path d="M47.987,455c12.959,10.4,19.893,24.26,31.14,35.75,13.313,13.6,34.5,22.485,53.223,29.87a317.721,317.721,0,0,0,55.208,15.758c16.633,3.264,34.84,2.743,51.033,6.775,2.136.533.8,3.146-1.316,2.617-8.757-2.181-18.735-2.043-27.81-3.108-10.493-1.231-20.853-3.1-31.114-5.259a321.105,321.105,0,0,1-51.524-15.827c-17.3-6.822-33.214-15.213-47.091-26.128-14.192-11.162-20.34-27.365-34.47-38.7-1.592-1.274,1.155-3,2.721-1.746" transform="translate(-29.775 415.019)" fill="#ae97c0"/>
            <path d="M105.191,498.65a86.356,86.356,0,0,0,25.947,13.328c13,4.072,41.929-.478,27.373-16.034-12.561-13.421-38.074-.159-51.2,5.655a1.472,1.472,0,1,1-1.335-2.611c15.8-6.991,54.7-22.463,59.707,3.322,1.8,9.291-11.12,13.925-20.1,14.495-15.626.995-31.517-7.75-42.478-15.9-1.639-1.217.432-3.485,2.084-2.258" transform="translate(62.68 455.151)" fill="#ae97c0"/>
            <path d="M72.011,483.551c12.2,2.025,23.8,4.187,36.367,3.35,12.944-.863,25.533-5.734,38.032-8.45,2.146-.467,2.568,2.344.44,2.806-12.761,2.774-24.958,6.736-38.032,8.451-12.415,1.631-25.208-1.352-37.267-3.355a1.437,1.437,0,1,1,.46-2.8" transform="translate(10.815 443.654)" fill="#ae97c0"/>
            <path d="M86.665,494.654c10.649,2.221,21.087,3.872,32.108,2.529,8.58-1.043,24.81-11.614,18.553-19.815-4.847-6.353-21.105.709-26.543,2.989C102.224,483.95,97,490.7,89.275,495.2c-1.813,1.057-3.952-1.169-2.133-2.228,6.647-3.868,11.26-9.516,18.059-13.205a75.575,75.575,0,0,1,16.295-6.166c8.076-2.177,17.445-2.265,20.546,5.38,2.862,7.068-7.519,14.42-13.487,17.85-11.968,6.885-29.436,3.322-42.346.63-2.136-.442-1.707-3.253.458-2.8" transform="translate(34.328 436.354)" fill="#ae97c0"/>
            <path d="M71.555,480.4a111.382,111.382,0,0,1,33.932,24.07,109.836,109.836,0,0,1,13.779,16.885c4.29,6.586,4.249,14.7,6.642,21.743.588,1.735-2.6,2.846-3.19,1.092a83.946,83.946,0,0,1-2.917-11.321c-1.8-9.269-7.646-16.465-14.429-23.808-9.756-10.557-20.907-19.569-35.131-26.045a1.47,1.47,0,1,1,1.314-2.617" transform="translate(9.478 445.836)" fill="#ae97c0"/>
            <path d="M88.409,493.254c13.659,5.89,23.652,16.234,27.427,28.563,2.274,7.422,3.036,18.682-4.446,24.337-7.745,5.853-17.809-4.039-21.082-8.7-9.085-12.937-8.731-27.654-5.3-41.816.432-1.781,3.866-1.422,3.432.374-3.208,13.227-5.448,44.134,16.719,48.6,11.45,2.3,8.19-18.538,7.246-22.435-2.7-11.156-13.331-21.14-25.31-26.3-1.956-.843-.661-3.469,1.314-2.617" transform="translate(31.073 461.296)" fill="#ae97c0"/>
            <path d="M71.969,543.717c2.438-11.913,1.673-23.648-.77-35.505-2.456-11.913-9.345-22.569-12.793-34.229-.526-1.768,2.909-2.115,3.429-.359,3.832,12.952,10.8,24.537,13.526,37.784a80.962,80.962,0,0,1,.039,32.683c-.369,1.792-3.8,1.429-3.432-.374" transform="translate(-8.045 436.532)" fill="#ae97c0"/>
            <path d="M74.676,483.619c12.418,10.421,21.108,24.649,18.079,39.527-1.522,7.475-5.843,19.076-15.876,21.526-10.93,2.672-17.91-12.707-19.7-18.675-4.223-14.024,6.733-28.675,14.185-40.555,1.012-1.611,4.22-.55,3.2,1.072-5.092,8.116-10.428,16.124-13.329,24.988a28,28,0,0,0-.63,14.136c1.009,5.274,7.509,18.241,16.508,16.042,8.084-1.974,11.4-14.942,12.558-20.594,2.7-13.3-6.874-26.619-17.718-35.721-1.561-1.31,1.186-3.038,2.721-1.746" transform="translate(-11.431 449.377)" fill="#ae97c0"/>
            <path d="M54.213,464.009c21.441,8.8,42.239,7.207,64.97,3.355,2.185-.37,2.615,2.439.44,2.806-23.449,3.973-44.729,5.488-66.724-3.544-1.983-.812-.684-3.436,1.314-2.617" transform="translate(-18.359 426.182)" fill="#ae97c0"/>
            <path d="M65.449,475.569c12.8,9.17,48.959,17.759,54-2.441,3.08-12.358-21.581-9.976-28.892-8.345-8.513,1.9-17.221,5.736-22.593,11.567-1.345,1.462-4.1-.247-2.76-1.7,7.449-8.087,20.012-12.267,31.887-13.92,8.289-1.156,23.709.266,25.5,9,1.647,8.015-6.757,16.756-16.63,17.975-14.52,1.789-31.489-1.922-42.59-9.879-1.67-1.2.4-3.46,2.084-2.258" transform="translate(-1.002 422.012)" fill="#ae97c0"/>
            <path d="M30.972,399.087c10.862-22.708,36.861-40.308,66.562-44.079,17.143-2.181,32.516.161,48.514,5.386,20.353,6.645,43.74,21.028,66.718,18.695,1.9-.192,2.068,2.221.187,2.413-14.067,1.426-29.618-4.486-42.14-9.1-18.511-6.826-36.221-15.08-56.957-15.952-34.65-1.457-67.845,17.8-80.245,43.72-.692,1.451-3.33.357-2.641-1.083" transform="translate(-52.082 294.46)" fill="#ae97c0"/>
            <path d="M117.892,355.013c-12.665,1.939-26.137,5.2-33.255,14.717-.986,1.318-3.637.247-2.641-1.085C89.734,358.3,103.864,354.72,117.7,352.6c1.873-.286,2.035,2.131.19,2.415" transform="translate(29.474 292.514)" fill="#ae97c0"/>
            <path d="M90.8,389.846c-10.659-7.59-18.142-21.191-19.289-32.631-.156-1.558,2.794-1.708,2.948-.158,1.09,10.856,8.219,23.8,18.319,31,1.436,1.021-.541,2.82-1.977,1.794" transform="translate(13.019 296.59)" fill="#ae97c0"/>
            <path d="M99.511,345.019c-14.086,6.126-26.03,14.825-36.853,24.328-1.3,1.136-3.5-.475-2.193-1.618C71.446,358.088,83.6,349.213,97.9,342.994c1.665-.724,3.3,1.292,1.61,2.025" transform="translate(-5.3 280.82)" fill="#ae97c0"/>
            <path d="M111.465,370.593c-3.809,6.212-15.582,1.382-11.773-4.827s15.579-1.38,11.773,4.827" transform="translate(56.971 304.89)" fill="#ae97c0"/>
            <path d="M89.27,376.259c-3.809,6.21-15.582,1.382-11.773-4.829s15.579-1.378,11.773,4.829" transform="translate(21.421 311.694)" fill="#ae97c0"/>
            <path d="M105.708,358.771c-3.809,6.21-15.582,1.38-11.775-4.829s15.582-1.38,11.775,4.829" transform="translate(47.747 290.686)" fill="#ae97c0"/>
            <path d="M84.891,348.132c-3.809,6.21-15.584,1.38-11.773-4.829s15.579-1.38,11.773,4.829" transform="translate(14.406 277.906)" fill="#ae97c0"/>
            <path d="M68.839,526.494c-3.114,0-5.641,2.065-5.641,4.614s2.526,4.611,5.641,4.611,5.641-2.065,5.641-4.611-2.526-4.614-5.641-4.614m0,7.607c-2.022,0-3.661-1.338-3.661-2.994s1.639-3,3.661-3,3.661,1.343,3.661,3S70.86,534.1,68.839,534.1" transform="translate(-0.283 501.427)" fill="#fff"/>
            <path d="M69.749,527a1.344,1.344,0,1,1-1.316-1.078A1.216,1.216,0,0,1,69.749,527" transform="translate(5.988 500.739)" fill="#fff"/>
            <path d="M89.108,541.974v-7.9h3.242l.487-3.08H89.108v-1.966c0-.889.3-1.5,1.865-1.5l1.993,0v-2.752c-.343-.037-1.527-.121-2.9-.121-2.875,0-4.842,1.435-4.842,4.068V531h-3.25v3.08h3.25v7.9Z" transform="translate(29.786 499.22)" fill="#fff"/>
        </g>
        <rect width="275.794" height="864.396" transform="translate(396.618 216)" fill="none"/>
        
    </g>
</svg>